<?xml version="1.0" encoding="utf-8"?>
<!-- Generator: Adobe Illustrator 21.1.0, SVG Export Plug-In . SVG Version: 6.00 Build 0)  -->
<svg version="1.1" id="Layer_1" xmlns="http://www.w3.org/2000/svg" xmlns:xlink="http://www.w3.org/1999/xlink" x="0px" y="0px"
	 viewBox="0 0 88 88" style="enable-background:new 0 0 88 88;" xml:space="preserve">
<style type="text/css">
	.st0{fill:none;stroke:#000000;stroke-width:2.5;stroke-miterlimit:10;}
	.st1{fill:none;stroke:#000000;stroke-width:2.5;stroke-linecap:round;stroke-miterlimit:10;}
</style>
<path class="st0" d="M37.9,64.3h-5.5c-0.3,0-0.5-0.2-0.5-0.5V53.1c0-0.3,0.2-0.5,0.5-0.5h5.5c0.3,0,0.5,0.2,0.5,0.5v10.7
	C38.4,64.1,38.1,64.3,37.9,64.3z"/>
<circle class="st0" cx="28.9" cy="19.2" r="5.2"/>
<path class="st1" d="M45.2,43.5"/>
<line class="st1" x1="6.6" y1="45.2" x2="16.2" y2="45.2"/>
<line class="st1" x1="24.8" y1="45.2" x2="35.9" y2="45.2"/>
<line class="st1" x1="42" y1="45.2" x2="53.2" y2="45.2"/>
<line class="st1" x1="63.5" y1="45.2" x2="80.6" y2="45.2"/>
<path class="st1" d="M36,41.7v8.1c0,1.7,1.3,3,3,3h0c1.7,0,3-1.3,3-3v-6.4v-1.9c0-7.2-5.9-13.2-13.2-13.2h0
	c-7.2,0-13.2,5.9-13.2,13.2v1.3c0,1.6,0.6,3.1,1.8,4.2l4.9,4.9c1.2,1.2,3.1,1.2,4.2,0l0,0c1.2-1.2,1.2-3.1,0-4.2l-2.5-2.5
	c-1.1-1.1-2.5-1.9-2.5-3.5l0,0"/>
<circle class="st0" cx="58.3" cy="45.8" r="5.2"/>
<path class="st1" d="M45.2,74.8v-6.7c0-7.2,5.9-13.2,13.2-13.2h0c7.2,0,13.2,5.9,13.2,13.2v6.1"/>
</svg>
