<?xml version="1.0" encoding="utf-8"?>
<!-- Generator: Adobe Illustrator 21.1.0, SVG Export Plug-In . SVG Version: 6.00 Build 0)  -->
<svg version="1.1" xmlns="http://www.w3.org/2000/svg" xmlns:xlink="http://www.w3.org/1999/xlink" x="0px" y="0px"
	 viewBox="0 0 88 88" style="enable-background:new 0 0 88 88;" xml:space="preserve">
<style type="text/css">
	.st0{display:none;}
	.st1{display:inline;fill:none;stroke:#000000;stroke-width:2.5;stroke-miterlimit:10;}
	.st2{display:inline;fill:none;stroke:#000000;stroke-width:2.5;stroke-linecap:round;stroke-miterlimit:10;}
	.st3{display:inline;fill-rule:evenodd;clip-rule:evenodd;fill:none;stroke:#000000;stroke-width:2.5;stroke-miterlimit:10;}
	.st4{display:inline;fill:none;stroke:#1D1D1B;stroke-width:2.5;stroke-miterlimit:10;}
	.st5{display:inline;fill-rule:evenodd;clip-rule:evenodd;}
	.st6{display:inline;}
	.st7{fill:none;stroke:#000000;stroke-width:2.5;stroke-linecap:round;stroke-miterlimit:10;}
	.st8{fill:none;stroke:#000000;stroke-width:2.5;stroke-linecap:round;stroke-linejoin:round;stroke-miterlimit:10;}
	.st9{fill-rule:evenodd;clip-rule:evenodd;fill:none;stroke:#000000;stroke-width:2.5;stroke-miterlimit:10;}
	.st10{fill:none;stroke:#000000;stroke-width:2.5;stroke-miterlimit:10;}
	.st11{fill:none;stroke:#000000;stroke-width:3;stroke-miterlimit:10;}
</style>
<g id="Layer_1" class="st0">
	<path class="st1" d="M37.9,64.3h-5.5c-0.3,0-0.5-0.2-0.5-0.5V53.1c0-0.3,0.2-0.5,0.5-0.5h5.5c0.3,0,0.5,0.2,0.5,0.5v10.7
		C38.4,64.1,38.1,64.3,37.9,64.3z"/>
	<circle class="st1" cx="28.9" cy="19.2" r="5.2"/>
	<path class="st2" d="M45.2,43.5"/>
	<line class="st2" x1="6.6" y1="45.2" x2="16.2" y2="45.2"/>
	<line class="st2" x1="24.8" y1="45.2" x2="35.9" y2="45.2"/>
	<line class="st2" x1="42" y1="45.2" x2="53.2" y2="45.2"/>
	<line class="st2" x1="63.5" y1="45.2" x2="80.6" y2="45.2"/>
	<path class="st2" d="M36,41.7v8.1c0,1.7,1.3,3,3,3h0c1.7,0,3-1.3,3-3v-6.4v-1.9c0-7.2-5.9-13.2-13.2-13.2h0
		c-7.2,0-13.2,5.9-13.2,13.2v1.3c0,1.6,0.6,3.1,1.8,4.2l4.9,4.9c1.2,1.2,3.1,1.2,4.2,0l0,0c1.2-1.2,1.2-3.1,0-4.2l-2.5-2.5
		c-1.1-1.1-2.5-1.9-2.5-3.5l0,0"/>
	<circle class="st1" cx="58.3" cy="45.8" r="5.2"/>
	<path class="st2" d="M45.2,74.8v-6.7c0-7.2,5.9-13.2,13.2-13.2h0c7.2,0,13.2,5.9,13.2,13.2v6.1"/>
</g>
<g id="Layer_2" class="st0">
	<line class="st2" x1="70.7" y1="52.3" x2="81.1" y2="52.3"/>
	<line class="st2" x1="47.8" y1="52.3" x2="61.3" y2="52.3"/>
	<line class="st2" x1="25.7" y1="52.3" x2="39.1" y2="52.3"/>
	<line class="st2" x1="7.3" y1="52.3" x2="16.1" y2="52.3"/>
	<circle class="st1" cx="21.3" cy="52.3" r="4.4"/>
	<path class="st2" d="M33.7,76.1"/>
	<path class="st2" d="M32.4,76.1v-4.2c0-6.1-5-11.1-11.1-11.1h0c-6.1,0-11.1,5-11.1,11.1v4.2"/>
	<circle class="st1" cx="43.5" cy="52.3" r="4.4"/>
	<path class="st2" d="M32.4,76.1v-4.2c0-6.1,5-11.1,11.1-11.1h0c6.1,0,11.1,5,11.1,11.1v4.2"/>
	<circle class="st1" cx="65.7" cy="52.3" r="4.4"/>
	<path class="st2" d="M54.6,76.1v-4.2c0-6.1,5-11.1,11.1-11.1h0c6.1,0,11.1,5,11.1,11.1v4.2"/>
	<path class="st1" d="M33.6,30.8"/>
	<path class="st1" d="M39.6,40"/>
	<path class="st1" d="M33.6,28.8V13.3c0-0.3,0.2-0.5,0.5-0.5h38.1c0.3,0,0.5,0.2,0.5,0.5l0,26.1c0,0.3-0.2,0.5-0.5,0.5H35.9"/>
	<path class="st1" d="M33.6,30.8"/>
	<path class="st2" d="M35.9,40v-4.2c0-6.1-5-11.1-11.1-11.1h0c-6.1,0-11.1,5-11.1,11.1V40"/>
	<circle class="st1" cx="24.8" cy="15.4" r="4.4"/>
	<path class="st2" d="M27.2,30.8"/>
	<path class="st2" d="M46.1,21.3"/>
	<path class="st2" d="M34.4,27.6"/>
</g>
<g id="Layer_3" class="st0">
	<path class="st3" d="M52.2,44.8l9.1,9.1c15-1.9,16,9.8,15.9,14.2c0,0.6-0.8,0.9-1.2,0.5L71.4,64c-0.8-0.8-1.8-1.2-2.8-1.3h0
		c-1.3-0.1-2.7,0.4-3.6,1.3l-1.4,1.4c-1,1-1.4,2.3-1.3,3.6l0,0c0.1,1.1,0.6,2.1,1.3,2.8l4.5,4.5c0.5,0.5,0.1,1.2-0.5,1.2
		c-18,0.6-14.1-15.9-14.1-15.9l-9-9 M35.2,43.6l-8.9-8.9c0,0-16.4,3.9-15.9-14.1c0-0.6,0.8-1,1.2-0.5l4.5,4.5
		c0.8,0.8,1.8,1.2,2.8,1.3l0,0c1.3,0.1,2.7-0.4,3.6-1.3l1.4-1.4c1-1,1.4-2.3,1.3-3.6l0,0c-0.1-1.1-0.6-2.1-1.3-2.8l-4.6-4.6
		c-0.4-0.4-0.1-1.2,0.5-1.2c4.4-0.1,16.1,0.9,14.2,15.9l8.9,8.9"/>
	<path class="st3" d="M57.2,39.9l-9-9L15.4,63.6c-2.5,2.5-2.5,6.5,0,9l0,0c2.5,2.5,6.5,2.5,9,0L57.2,39.9z"/>
	<line class="st3" x1="52.7" y1="35.4" x2="63.7" y2="24.3"/>
	<line class="st3" x1="18.4" y1="60.6" x2="27.5" y2="69.6"/>
	<polygon class="st4" points="74.2,17.3 72.5,15.6 72.5,15.6 70.7,13.8 61.4,19.9 61,23.5 62.7,25.3 62.8,25.3 64.5,27.1 68.2,26.7 
			"/>
	<circle class="st5" cx="27.5" cy="60.6" r="1.2"/>
	<circle class="st5" cx="31.3" cy="56.7" r="1.2"/>
</g>
<g id="Layer_4" class="st0">
	<path class="st3" d="M49.6,39.9l4.3,4.3c7.1-0.9,7.6,4.6,7.5,6.7c0,0.3-0.4,0.4-0.6,0.2L58.7,49c-0.4-0.4-0.8-0.6-1.3-0.6l0,0
		c-0.6-0.1-1.3,0.2-1.7,0.6L55,49.7c-0.5,0.5-0.7,1.1-0.6,1.7v0c0,0.5,0.3,1,0.6,1.3l2.2,2.2c0.2,0.2,0.1,0.6-0.2,0.6
		c-8.5,0.3-6.7-7.5-6.7-7.5L46,43.7 M41.6,39.4l-4.2-4.2c0,0-7.8,1.8-7.5-6.7c0-0.3,0.4-0.5,0.6-0.2l2.2,2.2C33,30.7,33.4,31,34,31
		l0,0c0.6,0.1,1.3-0.2,1.7-0.6l0.7-0.7c0.5-0.5,0.7-1.1,0.6-1.7v0c0-0.5-0.3-1-0.6-1.3l-2.2-2.2c-0.2-0.2-0.1-0.6,0.2-0.6
		c2.1-0.1,7.6,0.4,6.7,7.5l4.2,4.2"/>
	<path class="st3" d="M52,37.6l-4.3-4.3L31.7,49.4c-0.8,0.8-0.8,2.2,0,3l1.2,1.2c0.8,0.8,2.2,0.8,3,0L52,37.6z"/>
	<line class="st3" x1="49.9" y1="35.5" x2="55.1" y2="30.3"/>
	<line class="st3" x1="33.7" y1="47.4" x2="38" y2="51.7"/>
	<polygon class="st4" points="60.1,27 59.3,26.1 59.2,26.1 58.4,25.3 54,28.2 53.8,29.9 54.7,30.7 54.7,30.7 55.5,31.6 57.2,31.4 	
		"/>
	<polyline class="st3" points="16.1,55.3 16.1,15.9 75.7,15.9 75.7,67.4 67.9,67.4 	"/>
	<polyline class="st3" points="15.6,15.8 25.1,9.3 67.8,9.3 76.3,15.8 	"/>
	<line class="st1" x1="45.9" y1="14.9" x2="45.9" y2="9.3"/>
	<g class="st6">
		<path class="st7" d="M16.9,57.6c0,0,13.8-1.7,20.9,5.3h13.9c1.9,0,3.4,1.5,3.4,3.4v0.2c0,1.9-1.5,3.4-3.4,3.4H29.9"/>
		<path class="st7" d="M52.3,69.9l8.8-3.5c2.1-0.8,6.3-0.5,7.1,1.6v0c0.6,1.5-0.1,3.2-1.6,3.8L55,76.4c-12.8,5.1-27.3,3.7-38.8-3.9
			l0,0"/>
		<rect x="8.5" y="54.7" class="st8" width="7.6" height="21.3"/>
	</g>
</g>
<g id="Layer_5" class="st0">
	<g class="st6">
		<path d="M73.1,49.9L61,37.8l19.9-19.9c0.5-0.5,1.3-0.5,1.8,0s0.5,1.3,0,1.8L64.6,37.8l8.5,8.5l7.3-7.3c0.5-0.5,1.3-0.5,1.8,0
			s0.5,1.3,0,1.8L73.1,49.9z"/>
		<path d="M77.8,44.7c-0.3,0-0.6-0.1-0.9-0.4L66.6,34.1c-0.5-0.5-0.5-1.3,0-1.8s1.3-0.5,1.8,0l10.3,10.3c0.5,0.5,0.5,1.3,0,1.8
			C78.4,44.6,78.1,44.7,77.8,44.7z"/>
		<path d="M66.8,52l-8-8l6-6l8,8L66.8,52z M62.3,44l4.5,4.5l2.5-2.5l-4.5-4.5L62.3,44z"/>
		<path d="M56.9,55.4c-0.3,0-0.6-0.1-0.9-0.4c-0.5-0.5-0.5-1.3,0-1.8l6.9-6.9c0.5-0.5,1.3-0.5,1.8,0s0.5,1.3,0,1.8l-6.9,6.9
			C57.5,55.3,57.2,55.4,56.9,55.4z"/>
	</g>
	<path class="st6" d="M64.7,29.4h-12c-0.7,0-1.2-0.6-1.2-1.2s0.6-1.2,1.2-1.2h12c0.7,0,1.2,0.6,1.2,1.2S65.4,29.4,64.7,29.4z"/>
	<path class="st6" d="M63.7,24.4h-12c-0.7,0-1.2-0.6-1.2-1.2s0.6-1.2,1.2-1.2h12c0.7,0,1.2,0.6,1.2,1.2S64.4,24.4,63.7,24.4z"/>
	<path class="st6" d="M26.7,29.4h-12c-0.7,0-1.2-0.6-1.2-1.2s0.6-1.2,1.2-1.2h12c0.7,0,1.2,0.6,1.2,1.2S27.4,29.4,26.7,29.4z"/>
	<path class="st6" d="M30.7,34.4h-15c-0.7,0-1.2-0.6-1.2-1.2s0.6-1.2,1.2-1.2h15c0.7,0,1.2,0.6,1.2,1.2S31.4,34.4,30.7,34.4z"/>
	<path class="st6" d="M46.7,39.4h-28c-0.7,0-1.2-0.6-1.2-1.2s0.6-1.2,1.2-1.2h28c0.7,0,1.2,0.6,1.2,1.2S47.4,39.4,46.7,39.4z"/>
	<path class="st6" d="M55.7,44.4h-31c-0.7,0-1.2-0.6-1.2-1.2s0.6-1.2,1.2-1.2h31c0.7,0,1.2,0.6,1.2,1.2S56.4,44.4,55.7,44.4z"/>
	<path class="st6" d="M54.7,49.4h-15c-0.7,0-1.2-0.6-1.2-1.2s0.6-1.2,1.2-1.2h15c0.7,0,1.2,0.6,1.2,1.2S55.4,49.4,54.7,49.4z"/>
	<path class="st6" d="M66.7,64.4h-12c-0.7,0-1.2-0.6-1.2-1.2s0.6-1.2,1.2-1.2h12c0.7,0,1.2,0.6,1.2,1.2S67.4,64.4,66.7,64.4z"/>
	<path class="st6" d="M67.7,59.4h-5c-0.7,0-1.2-0.6-1.2-1.2s0.6-1.2,1.2-1.2h5c0.7,0,1.2,0.6,1.2,1.2S68.4,59.4,67.7,59.4z"/>
	<path class="st6" d="M64.7,69.4h-15c-0.7,0-1.2-0.6-1.2-1.2s0.6-1.2,1.2-1.2h15c0.7,0,1.2,0.6,1.2,1.2S65.4,69.4,64.7,69.4z"/>
	<path class="st6" d="M25.7,64.4h-12c-0.7,0-1.2-0.6-1.2-1.2s0.6-1.2,1.2-1.2h12c0.7,0,1.2,0.6,1.2,1.2S26.4,64.4,25.7,64.4z"/>
	<path class="st6" d="M24.7,59.4h-12c-0.7,0-1.2-0.6-1.2-1.2s0.6-1.2,1.2-1.2h12c0.7,0,1.2,0.6,1.2,1.2S25.4,59.4,24.7,59.4z"/>
	<path class="st6" d="M30.7,69.4h-15c-0.7,0-1.2-0.6-1.2-1.2s0.6-1.2,1.2-1.2h15c0.7,0,1.2,0.6,1.2,1.2S31.4,69.4,30.7,69.4z"/>
	<path class="st6" d="M59.7,74.4h-39c-0.7,0-1.2-0.6-1.2-1.2s0.6-1.2,1.2-1.2h39c0.7,0,1.2,0.6,1.2,1.2S60.4,74.4,59.7,74.4z"/>
	<path class="st6" d="M51.7,79.4h-21c-0.7,0-1.2-0.6-1.2-1.2s0.6-1.2,1.2-1.2h21c0.7,0,1.2,0.6,1.2,1.2S52.4,79.4,51.7,79.4z"/>
	<path class="st6" d="M26.7,24.4h-12c-0.7,0-1.2-0.6-1.2-1.2s0.6-1.2,1.2-1.2h12c0.7,0,1.2,0.6,1.2,1.2S27.4,24.4,26.7,24.4z"/>
	<path class="st6" d="M29.7,19.4h-12c-0.7,0-1.2-0.6-1.2-1.2s0.6-1.2,1.2-1.2h12c0.7,0,1.2,0.6,1.2,1.2S30.4,19.4,29.7,19.4z"/>
	<path class="st6" d="M61.7,19.4h-15c-0.7,0-1.2-0.6-1.2-1.2s0.6-1.2,1.2-1.2h15c0.7,0,1.2,0.6,1.2,1.2S62.4,19.4,61.7,19.4z"/>
	<path class="st6" d="M57.7,14.4h-37c-0.7,0-1.2-0.6-1.2-1.2s0.6-1.2,1.2-1.2h37c0.7,0,1.2,0.6,1.2,1.2S58.4,14.4,57.7,14.4z"/>
	<path class="st6" d="M48.7,9.4h-18c-0.7,0-1.2-0.6-1.2-1.2s0.6-1.2,1.2-1.2h18c0.7,0,1.2,0.6,1.2,1.2S49.4,9.4,48.7,9.4z"/>
</g>
<g id="Layer_6">
	<path class="st9" d="M57.7,81.1H29.1c-2.8,0-5-2.2-5-5V12.3c0-2.8,2.2-5,5-5h28.7c2.8,0,5,2.2,5,5v63.8
		C62.7,78.8,60.5,81.1,57.7,81.1z"/>
	<line class="st10" x1="24.1" y1="16.5" x2="62.7" y2="16.5"/>
	<line class="st11" x1="24.1" y1="71.1" x2="62.7" y2="71.1"/>
	<line class="st7" x1="38.4" y1="11.9" x2="48.4" y2="11.9"/>
	<line class="st7" x1="38.4" y1="75.7" x2="48.4" y2="75.7"/>
	<path class="st7" d="M42.6,33.1L31.4,52.5c-0.4,0.6,0.1,1.4,0.8,1.4h22.4c0.7,0,1.2-0.8,0.8-1.4L44.2,33.1
		C43.9,32.4,42.9,32.4,42.6,33.1z"/>
	<line class="st7" x1="43.3" y1="40.7" x2="43.3" y2="44.8"/>
	<circle cx="43.3" cy="48.9" r="1.3"/>
</g>
</svg>
