<?xml version="1.0" encoding="utf-8"?>
<!-- Generator: Adobe Illustrator 20.1.0, SVG Export Plug-In . SVG Version: 6.00 Build 0)  -->
<svg version="1.1" id="Layer_1" xmlns="http://www.w3.org/2000/svg" xmlns:xlink="http://www.w3.org/1999/xlink" x="0px" y="0px"
	 viewBox="0 0 60 60" style="enable-background:new 0 0 60 60;" xml:space="preserve">
<style type="text/css">
	.st0{fill:none;stroke:#12100B;stroke-width:1.5;stroke-miterlimit:10;}
	.st1{fill:none;stroke:#12100B;stroke-miterlimit:10;}
</style>
<path class="st0" d="M15,34.9v18.2c0,1.5,1.2,2.8,2.8,2.8h24.4c1.5,0,2.8-1.2,2.8-2.7l0,0V6.8C45,5.3,43.8,4,42.2,4H17.8
	C16.3,4,15,5.2,15,6.7l0,0C15,6.7,15,34.9,15,34.9z"/>
<polygon points="33.3,4.1 30,7.4 26.7,4.1 "/>
<line class="st1" x1="34.9" y1="38.7" x2="43.8" y2="54.5"/>
<line class="st1" x1="15.9" y1="4.8" x2="25.1" y2="21.3"/>
<g>
	<path d="M26.2,33.7c-0.4,0-0.7-0.1-1.1-0.2c-0.3-0.1-0.6-0.3-0.8-0.5c-0.2-0.2-0.4-0.5-0.5-0.8s-0.2-0.6-0.2-1c0-0.3,0-0.7,0.2-1
		c0.1-0.3,0.2-0.6,0.4-0.9l1.9-3h1.6L26,28.7c0.1,0,0.3-0.1,0.4-0.1c0.3,0,0.6,0.1,0.9,0.2s0.5,0.3,0.7,0.5s0.4,0.5,0.5,0.8
		s0.2,0.6,0.2,1s-0.1,0.7-0.2,1c-0.1,0.3-0.3,0.6-0.5,0.8s-0.5,0.4-0.8,0.5C26.9,33.6,26.5,33.7,26.2,33.7z M26.1,32.4
		c0.2,0,0.3,0,0.5-0.1s0.3-0.2,0.4-0.3c0.1-0.1,0.2-0.3,0.3-0.4c0.1-0.2,0.1-0.3,0.1-0.5s0-0.3-0.1-0.5s-0.2-0.3-0.3-0.4
		c-0.1-0.1-0.3-0.2-0.4-0.3c-0.2-0.1-0.3-0.1-0.5-0.1s-0.3,0-0.5,0.1c-0.1,0.1-0.3,0.2-0.4,0.3c-0.1,0.1-0.2,0.3-0.3,0.4
		c-0.1,0.2-0.1,0.3-0.1,0.5s0,0.3,0.1,0.5s0.2,0.3,0.3,0.4c0.1,0.1,0.2,0.2,0.4,0.3S26,32.4,26.1,32.4z"/>
	<path d="M29.2,32.9c0-0.2,0.1-0.4,0.2-0.6c0.1-0.1,0.3-0.2,0.6-0.2c0.3,0,0.5,0.1,0.6,0.2c0.1,0.2,0.2,0.3,0.2,0.6
		c0,0.2-0.1,0.4-0.2,0.6c-0.1,0.1-0.3,0.2-0.6,0.2c-0.3,0-0.5-0.1-0.6-0.2C29.3,33.3,29.2,33.1,29.2,32.9z"/>
	<path d="M31.4,32.4c0-0.3,0.1-0.6,0.2-0.8s0.3-0.5,0.4-0.7c0.2-0.2,0.4-0.4,0.6-0.6c0.2-0.2,0.5-0.3,0.7-0.5
		c0.2-0.1,0.4-0.2,0.5-0.4c0.2-0.1,0.3-0.2,0.4-0.3c0.1-0.1,0.2-0.2,0.3-0.4c0.1-0.1,0.1-0.3,0.1-0.4c0-0.2-0.1-0.4-0.3-0.6
		s-0.4-0.3-0.7-0.3s-0.6,0.1-0.8,0.3s-0.4,0.5-0.5,0.8L31.2,28c0.2-0.5,0.5-0.9,1-1.2c0.4-0.3,0.9-0.4,1.5-0.4c0.4,0,0.7,0.1,1,0.2
		s0.5,0.2,0.7,0.4c0.2,0.2,0.4,0.4,0.5,0.6s0.2,0.5,0.2,0.8s-0.1,0.5-0.2,0.8s-0.2,0.4-0.4,0.6s-0.4,0.4-0.6,0.5
		c-0.2,0.2-0.4,0.3-0.7,0.5c-0.2,0.1-0.4,0.2-0.5,0.4c-0.2,0.1-0.3,0.2-0.5,0.4c-0.1,0.1-0.3,0.3-0.3,0.4c-0.1,0.1-0.1,0.3-0.1,0.5
		H36v1.3h-4.6V32.4z"/>
	<path d="M36.7,28.4l0.3-2h1.2l-0.7,2H36.7z M38.3,28.4l0.3-2h1.2l-0.7,2H38.3z"/>
</g>
</svg>
