<?xml version="1.0" encoding="utf-8"?>
<!-- Generator: Adobe Illustrator 24.0.0, SVG Export Plug-In . SVG Version: 6.00 Build 0)  -->
<svg version="1.1" id="Layer_1" xmlns="http://www.w3.org/2000/svg" xmlns:xlink="http://www.w3.org/1999/xlink" x="0px" y="0px"
	 viewBox="0 0 400 400" style="enable-background:new 0 0 400 400;" xml:space="preserve">
<style type="text/css">
	.st0{fill:none;stroke:#000000;stroke-width:9;stroke-linecap:round;stroke-linejoin:round;}
	.st1{fill:none;stroke:#000000;stroke-width:9;stroke-linecap:round;stroke-linejoin:round;stroke-miterlimit:10;}
</style>
<g>
	<g>
		<path id="XMLID_12_" d="M258,176.5c-1.8,0-3-0.6-4.2-2.4c-1.2-2.4-0.6-4.8,1.8-6l67.9-36.3c2.4-1.2,4.8-0.6,6,1.8
			c1.2,2.4,0.6,4.8-1.8,6l-67.3,36.3C259.8,176.5,259.2,176.5,258,176.5z"/>
	</g>
	<path id="XMLID_11_" d="M79.5,264c-1.8,0-3-0.6-4.2-2.4c-1.2-2.4-0.6-4.8,1.8-6l67.9-36.3c2.4-1.2,4.8-0.6,6,1.8
		c1.2,2.4,0.6,4.8-1.8,6l-67.3,36.3C81.2,264,80.6,264,79.5,264z"/>
	<path id="XMLID_8_" class="st0" d="M327.1,122.9L327.1,122.9h-253c-6.5,0-11.3,5.4-11.3,11.3V158v8.3c0,5.4,0.6,8.3,4.8,11.3l3,2.4
		l7.1,6c7.1,6,7.1,17.3,0,23.2l-7.1,6l-3,2.4c-4.2,3-4.8,9.5-4.8,14.9v6.5v26.2c0,6.5,5.4,11.3,11.3,11.3l0,0h253
		c6.5,0,11.9-5.4,11.9-11.9V134.2C339,127.7,333.6,122.9,327.1,122.9z"/>
	<g>
		<g>
			<path d="M171.2,222.4c-2.2,0-4.2-0.4-6-1.1c-1.8-0.7-3.4-1.7-4.7-3c-1.3-1.3-2.3-2.7-3.1-4.5c-0.7-1.7-1.1-3.6-1.1-5.5
				c0-1.9,0.3-3.8,0.9-5.7c0.6-1.9,1.4-3.5,2.3-5l10.8-17.1h9.1l-9.1,13.7c0.8-0.2,1.6-0.3,2.5-0.3c1.8,0,3.5,0.4,5.1,1.1
				c1.6,0.7,3,1.7,4.2,2.9s2.1,2.8,2.8,4.5s1,3.7,1,5.7s-0.4,4-1.1,5.7s-1.8,3.2-3.1,4.5c-1.3,1.3-2.9,2.2-4.7,2.9
				C175.2,222,173.3,222.4,171.2,222.4z M171,215.3c1,0,1.9-0.2,2.8-0.6c0.9-0.4,1.6-0.9,2.3-1.6c0.7-0.7,1.2-1.4,1.6-2.3
				c0.4-0.9,0.6-1.9,0.6-2.9c0-1-0.2-1.9-0.6-2.8c-0.4-0.9-0.9-1.7-1.6-2.3c-0.7-0.6-1.4-1.2-2.3-1.5c-0.9-0.4-1.8-0.6-2.8-0.6
				c-1,0-1.9,0.2-2.8,0.6s-1.6,0.9-2.3,1.6c-0.7,0.7-1.2,1.4-1.5,2.3c-0.4,0.9-0.6,1.8-0.6,2.9c0,1,0.2,1.9,0.6,2.8
				c0.4,0.9,0.9,1.7,1.5,2.3c0.6,0.7,1.4,1.2,2.3,1.6S170,215.3,171,215.3z"/>
			<path id="XMLID_5_" d="M188.5,217.8c0-1.4,0.4-2.5,1.3-3.4c0.8-0.9,2-1.3,3.4-1.3c1.4,0,2.6,0.4,3.4,1.3c0.8,0.9,1.2,2,1.2,3.4
				c0,1.4-0.4,2.5-1.3,3.3c-0.8,0.9-2,1.3-3.4,1.3c-1.4,0-2.6-0.4-3.4-1.3C188.9,220.2,188.5,219.1,188.5,217.8z"/>
			<path d="M218.9,212.7H201v-7.1l17.5-25h7.9v25h6.1v7.1h-6.1v9.6h-7.5V212.7z M218.9,205.6v-13.4l-9.5,13.4H218.9z"/>
			<path d="M230.9,192.3l1.9-11.7h6.8l-4,11.7H230.9z M240.1,192.3l1.9-11.7h6.8l-4,11.7H240.1z"/>
		</g>
	</g>
	<path class="st1" d="M354.5,275.4c0,9.9-8.1,18-18,18H63.5c-9.9,0-18-8.1-18-18V124.6c0-9.9,8.1-18,18-18h272.9c9.9,0,18,8.1,18,18
		V275.4z"/>
</g>
</svg>
