<?xml version="1.0" encoding="utf-8"?>
<!-- Generator: Adobe Illustrator 24.0.0, SVG Export Plug-In . SVG Version: 6.00 Build 0)  -->
<svg version="1.1" id="Layer_1" xmlns="http://www.w3.org/2000/svg" xmlns:xlink="http://www.w3.org/1999/xlink" x="0px" y="0px"
	 viewBox="0 0 400 400" style="enable-background:new 0 0 400 400;" xml:space="preserve">
<style type="text/css">
	.st0{fill:none;stroke:#000000;stroke-width:9.0056;stroke-miterlimit:10;}
</style>
<path class="st0" d="M68,350V73.8c0-13.2,10.8-24,24-24h216.1c13.2,0,24,10.8,24,24V350"/>
<circle cx="132.8" cy="114.7" r="10.8"/>
<circle cx="132.8" cy="154.3" r="10.8"/>
<circle cx="132.8" cy="193.9" r="10.8"/>
<g>
	<path d="M165.9,109.8c2.4,0,4.8,2.4,4.8,4.8c0,2.4-2.4,4.8-4.8,4.8s-4.8-2.4-4.8-4.8C161.1,112.3,162.9,109.8,165.9,109.8
		 M165.9,103.8c-6,0-10.8,4.8-10.8,10.8c0,6,4.8,10.8,10.8,10.8s10.8-4.8,10.8-10.8C176.7,108.6,171.9,103.8,165.9,103.8
		L165.9,103.8z"/>
</g>
<circle cx="165.9" cy="193.9" r="10.8"/>
<path class="st0" d="M185.1,83.4h-73.8c-3,0-6,2.4-6,6v130.9c0,3,2.4,6,6,6h73.8c3,0,6-2.4,6-6V89.4
	C191.1,85.8,188.7,83.4,185.1,83.4z"/>
</svg>
