<?xml version="1.0" encoding="utf-8"?>
<!-- Generator: Adobe Illustrator 24.0.0, SVG Export Plug-In . SVG Version: 6.00 Build 0)  -->
<svg version="1.1" id="레이어_1" xmlns="http://www.w3.org/2000/svg" xmlns:xlink="http://www.w3.org/1999/xlink" x="0px"
	 y="0px" viewBox="0 0 400 400" style="enable-background:new 0 0 400 400;" xml:space="preserve">
<style type="text/css">
	.st0{fill:none;stroke:#000000;stroke-width:9;stroke-linecap:round;stroke-miterlimit:10;}
	.st1{display:none;}
	.st2{display:inline;}
	.st3{fill:#FFFFFF;}
	.st4{fill:none;stroke:#FFFFFF;stroke-width:1.5;stroke-linecap:round;stroke-miterlimit:10;}
</style>
<g>
	<path class="st0" d="M255.8,121.4v182.4c0,6-4.8,10.8-10.8,10.8h-90c-6,0-10.8-4.8-10.8-10.8V121.4c0-6,4.8-10.8,10.8-10.8h90
		C245,110.6,255.8,110,255.8,121.4z"/>
	<g>
		<path d="M168.2,90.8v9h63.6v-9c0-3-2.4-5.4-5.4-5.4H173C170.6,85.4,168.2,87.8,168.2,90.8z"/>
	</g>
	<polygon points="205.4,209.6 227,209.6 168.2,251.6 195.8,211.4 180.8,211.4 206.6,176.6 232.4,176.6 	"/>
</g>
<g id="레이어_3" class="st1">
	<rect x="170" y="170" class="st2" width="60" height="60"/>
	<g class="st2">
		<path class="st3" d="M191.9,222.6c0,0.5-0.2,0.9-0.5,1.2c-0.3,0.3-0.8,0.4-1.3,0.4h-1.7h-0.5v-5.7h0.9h1.1c0.6,0,1,0.1,1.3,0.4
			c0.3,0.3,0.5,0.7,0.5,1.2s-0.2,0.9-0.7,1.1C191.5,221.5,191.9,221.9,191.9,222.6z M188.7,219.4v1.6h1.1c0.5,0,0.8-0.2,0.8-0.8
			c0-0.5-0.3-0.8-0.9-0.8H188.7z M190.9,222.6c0-0.6-0.3-0.8-0.9-0.8h-1.3v1.7h1.4C190.6,223.4,190.9,223.2,190.9,222.6z"/>
		<path class="st3" d="M195.4,220.3c0.3,0.2,0.4,0.6,0.4,1v3H195v-0.6c-0.3,0.5-0.7,0.7-1.3,0.7c-0.4,0-0.7-0.1-1-0.3
			c-0.2-0.2-0.3-0.5-0.3-0.9c0-0.5,0.2-0.9,0.6-1.1c0.4-0.2,1-0.4,1.9-0.4v-0.2c0-0.4-0.3-0.7-0.9-0.7c-0.3,0-0.7,0.1-1,0.2
			l-0.2-0.7c0.5-0.2,0.9-0.3,1.4-0.3C194.7,219.9,195.1,220,195.4,220.3z M194.9,223.1v-0.9c-0.5,0-0.9,0.1-1.2,0.2
			s-0.4,0.3-0.4,0.6c0,0.4,0.2,0.6,0.6,0.6C194.3,223.6,194.6,223.4,194.9,223.1z"/>
		<path class="st3" d="M197.2,222.9v-2.1h-0.7V220h0.7v-1.2h0.9v1.2h1.2v0.8h-1.2v2c0,0.2,0.1,0.4,0.2,0.5c0.1,0.1,0.3,0.2,0.5,0.2
			c0.1,0,0.3,0,0.5-0.1l0.1,0.8c-0.2,0.1-0.5,0.1-0.7,0.1C197.6,224.3,197.2,223.9,197.2,222.9z"/>
		<path class="st3" d="M200.3,222.9v-2.1h-0.7V220h0.7v-1.2h0.9v1.2h1.2v0.8h-1.2v2c0,0.2,0.1,0.4,0.2,0.5c0.1,0.1,0.3,0.2,0.5,0.2
			c0.1,0,0.3,0,0.5-0.1l0.1,0.8c-0.2,0.1-0.5,0.1-0.7,0.1C200.7,224.3,200.3,223.9,200.3,222.9z"/>
		<path class="st3" d="M206.4,222.4h-2.7c0.1,0.7,0.5,1.1,1.1,1.1c0.4,0,0.7-0.1,1-0.3l0.3,0.7c-0.2,0.1-0.4,0.2-0.7,0.3
			c-0.3,0.1-0.5,0.1-0.8,0.1c-0.6,0-1.1-0.2-1.5-0.6c-0.4-0.4-0.5-0.9-0.5-1.6c0-0.7,0.2-1.3,0.5-1.6c0.3-0.3,0.8-0.6,1.4-0.6
			s1,0.2,1.3,0.5s0.5,0.9,0.5,1.5C206.5,222.1,206.5,222.3,206.4,222.4z M203.8,221.8h1.8c0-0.3-0.1-0.6-0.2-0.8s-0.4-0.3-0.6-0.3
			C204.1,220.7,203.9,221.1,203.8,221.8z"/>
		<path class="st3" d="M209.8,220l-0.2,0.9c-0.2-0.1-0.3-0.1-0.5-0.1c-0.2,0-0.3,0-0.5,0.1c-0.2,0.1-0.2,0.2-0.3,0.3v3h-0.9V220h0.8
			v0.6c0.3-0.5,0.6-0.7,1.1-0.7C209.5,219.9,209.7,220,209.8,220z"/>
		<path class="st3" d="M213.8,220l-1.3,4.1c-0.2,0.5-0.4,0.8-0.7,1.1s-0.8,0.5-1.4,0.7l-0.3-0.8c0.4-0.1,0.7-0.3,0.9-0.4
			c0.2-0.1,0.4-0.3,0.5-0.5l-1.4-4.2h0.9l1,3.2l0.9-3.2H213.8L213.8,220z"/>
	</g>
	<g class="st2">
		<path class="st4" d="M208,178.8c1,0,1.8,0.8,1.8,1.8V211c0,1-0.8,1.8-1.8,1.8h-15c-1,0-1.8-0.8-1.8-1.8v-30.4c0-1,0.8-1.8,1.8-1.8
			H208L208,178.8z"/>
		<g>
			<path class="st3" d="M195.2,175.3v1.5h10.6v-1.5c0-0.5-0.4-0.9-0.9-0.9H196C195.6,174.4,195.2,174.8,195.2,175.3z"/>
		</g>
		<g>
			<path class="st3" d="M193.2,185.7v23.7c0,0.8,0.6,1.4,1.4,1.4h11.7c0.8,0,1.4-0.6,1.4-1.4v-23.7H193.2z M195.6,207l3.3-8.3h-3.1
				l9.4-9.9l-3.1,7.7h3.3L195.6,207z"/>
		</g>
	</g>
</g>
</svg>
