<?xml version="1.0" encoding="utf-8"?>
<!-- Generator: Adobe Illustrator 16.0.0, SVG Export Plug-In . SVG Version: 6.00 Build 0)  -->
<!DOCTYPE svg PUBLIC "-//W3C//DTD SVG 1.1//EN" "http://www.w3.org/Graphics/SVG/1.1/DTD/svg11.dtd">
<svg version="1.1" id="레이어_1" xmlns="http://www.w3.org/2000/svg" xmlns:xlink="http://www.w3.org/1999/xlink" x="0px"
	 y="0px" viewBox="0 0 26 26" enable-background="new 0 0 26 26" xml:space="preserve">
<path fill="#1428a0" d="M12,0C5.373,0,0,5.373,0,12c0,6.628,5.373,12,12,12c6.628,0,12-5.372,12-12C24,5.373,18.628,0,12,0z M16,7
	c0,0-0.448,0-1.479,0S13,7.938,13,7.938V10h3l-0.5,3H13v7h-3v-7H8v-3h2V7.906C11,4.401,13.875,4,13.875,4H16V7z"/>
</svg>
