<?xml version="1.0" encoding="utf-8"?>
<!-- Generator: Adobe Illustrator 16.0.0, SVG Export Plug-In . SVG Version: 6.00 Build 0)  -->
<!DOCTYPE svg PUBLIC "-//W3C//DTD SVG 1.1//EN" "http://www.w3.org/Graphics/SVG/1.1/DTD/svg11.dtd">
<svg version="1.1" id="레이어_1" xmlns="http://www.w3.org/2000/svg" xmlns:xlink="http://www.w3.org/1999/xlink" x="0px"
	 y="0px" viewBox="0 0 26 26" enable-background="new 0 0 26 26" xml:space="preserve">
<path fill="#363636" d="M12,0C5.373,0,0,5.373,0,12c0,6.628,5.373,12,12,12c6.628,0,12-5.372,12-12C24,5.373,18.628,0,12,0z
	 M18.013,9.242c0.099,1.44-0.352,4.518-2.627,6.827c-2.276,2.309-5.836,2.242-5.836,2.242c-3.461,0-5.003-1.253-5.003-1.253
	c2.968,0.055,4.397-1.264,4.397-1.264c-2.682-0.319-2.979-2.001-2.979-2.001c1.605,0.473,2.484,0,2.484,0
	C4.887,12.43,4.942,10.22,4.942,10.22c0.385,0.308,1.473,0.517,1.473,0.517C5.349,9.945,4.942,9.055,4.942,8.241
	s0.506-1.506,0.506-1.506c0.451,0.44,1.957,2.572,6.53,2.495C11.725,6.867,13.527,5.702,15,5.702c1.474,0,2.397,1.407,2.397,1.407
	c0.483-0.132,1.626-0.89,1.626-0.89c-0.462,1.253-1.494,2.012-1.494,2.012C18.684,8,19.53,7.615,19.53,7.615
	C19.024,8.439,18.013,9.242,18.013,9.242z"/>
</svg>
