<?xml version="1.0" encoding="utf-8"?>
<!-- Generator: Adobe Illustrator 16.0.3, SVG Export Plug-In . SVG Version: 6.00 Build 0)  -->
<!DOCTYPE svg PUBLIC "-//W3C//DTD SVG 1.1//EN" "http://www.w3.org/Graphics/SVG/1.1/DTD/svg11.dtd">
<svg version="1.1" id="BTN_x5F_Share_1_" xmlns="http://www.w3.org/2000/svg" xmlns:xlink="http://www.w3.org/1999/xlink" x="0px"
	 y="0px" viewBox="0 0 39 57" enable-background="new 0 0 39 57" xml:space="preserve" preserveAspectRatio="XMinYMin meet">
<path fill="#1428a0" d="M28,36c-2.552,0-4.872,0.964-6.639,2.536l-3.888-3.907C19.04,32.863,20,30.546,20,28c0-2.143-0.68-4.124-1.828-5.751
	l4.065-4.085C23.867,19.316,25.852,20,28,20c5.523,0,10-4.478,10-10S33.523,0,28,0S18,4.478,18,10c0,1.524,0.351,2.963,0.961,4.256
	l-4.689,4.712C12.975,18.354,11.53,18,10,18C4.477,18,0,22.478,0,28s4.477,10,10,10c1.271,0,2.482-0.247,3.601-0.68l5.072,5.097
	C18.244,43.53,18,44.735,18,46c0,5.522,4.477,10,10,10s10-4.478,10-10S33.523,36,28,36z M28,5c2.762,0,5,2.238,5,5s-2.238,5-5,5
	s-5-2.238-5-5S25.238,5,28,5z M5,28c0-2.762,2.239-5,5-5s5,2.238,5,5s-2.239,5-5,5S5,30.762,5,28z M28,51c-2.762,0-5-2.238-5-5
	s2.238-5,5-5s5,2.238,5,5S30.762,51,28,51z"/>
</svg>
