<?xml version="1.0" encoding="utf-8"?>
<!-- Generator: Adobe Illustrator 16.0.3, SVG Export Plug-In . SVG Version: 6.00 Build 0)  -->
<!DOCTYPE svg PUBLIC "-//W3C//DTD SVG 1.1//EN" "http://www.w3.org/Graphics/SVG/1.1/DTD/svg11.dtd">
<svg version="1.1" id="Layer_1" xmlns="http://www.w3.org/2000/svg" xmlns:xlink="http://www.w3.org/1999/xlink" x="0px" y="0px"
	 viewBox="-0.654 -0.654 61 61" enable-background="new -0.654 -0.654 61 61" xml:space="preserve">
<g>
	<path fill="#363636" d="M28.346-0.654c-16.016,0-29,12.981-29,29c0,11.874,7.14,22.075,17.356,26.561c-0.08-2.026-0.014-4.455,0.507-6.658
		c0.557-2.355,3.73-15.802,3.73-15.802s-0.927-1.853-0.927-4.589c0-4.296,2.491-7.506,5.593-7.506c2.639,0,3.911,1.98,3.911,4.353
		c0,2.651-1.691,6.617-2.561,10.29c-0.725,3.077,1.543,5.586,4.578,5.586c5.493,0,9.194-7.056,9.194-15.418
		c0-6.354-4.28-11.113-12.066-11.113c-8.797,0-14.277,6.56-14.277,13.888c0,2.526,0.746,4.307,1.913,5.688
		c0.536,0.631,0.611,0.888,0.417,1.613c-0.139,0.533-0.459,1.82-0.59,2.329c-0.193,0.736-0.787,0.998-1.452,0.727
		c-4.052-1.653-5.939-6.091-5.939-11.08C8.734,18.978,15.682,9.1,29.46,9.1c11.071,0,18.357,8.013,18.357,16.612
		c0,11.375-6.321,19.874-15.645,19.874c-3.132,0-6.076-1.693-7.085-3.612c0,0-1.684,6.682-2.039,7.97
		c-0.615,2.238-1.819,4.472-2.92,6.213c2.608,0.77,5.362,1.189,8.22,1.189c16.013,0,28.998-12.982,28.998-28.999
		C57.344,12.328,44.359-0.654,28.346-0.654z"/>
</g>
</svg>
